DataType=double
version=3
OpenSimVersion=4.5.2-2025-05-03-6a4c6ec41
endheader
time	q	/jointset/head_joint/q/speed
1.000000000000001	0.3630359632568827	-1.437532880321125
1.001000000000001	0.3616080706720505	-1.418249092271234
1.002	0.360201197835691	-1.395493428750057
1.003	0.3588160620433404	-1.374775051317228
1.004	0.3574505346553711	-1.356276662358333
1.005	0.3560771545252989	-1.390480516337109
1.006	0.3546761803215539	-1.411464746168962
1.007	0.3532526346813109	-1.435623336991953
1.008	0.3518338761655072	-1.401890506372045
1.009	0.3504416217808489	-1.3826151326465
1.01	0.3490694800751324	-1.361665192150074
1.010999999999999	0.3477167483023979	-1.343795308835946
1.011999999999999	0.346381071260415	-1.327555767565564
1.012999999999999	0.3450367307087542	-1.361122307219552
1.013999999999999	0.3436650729617837	-1.382190095136207
1.014999999999999	0.3422708495433512	-1.406253597727033
1.015999999999999	0.3408814858112065	-1.372470731965355
1.016999999999999	0.3395182738036415	-1.353950206067587
1.017999999999999	0.3381740875667262	-1.334419232160544
1.018999999999999	0.3368480538315444	-1.3176452421883
1.019999999999998	0.3355380098158842	-1.302439827877608
1.020999999999998	0.3342189573584562	-1.335662103993873
1.021999999999998	0.3328727602705938	-1.356729025951098
1.022999999999998	0.3315040407741383	-1.380706868769189
1.023999999999998	0.330140255778003	-1.346860035027986
1.024999999999998	0.3288022482399376	-1.329152009603093
1.025999999999998	0.3274826006840219	-1.310140110970438
1.026999999999998	0.3261805840173627	-1.29389026973975
1.027999999999998	0.3248940640995356	-1.279146647170658
1.028999999999997	0.3235984081400378	-1.312162331075788
1.029999999999997	0.3222757307347277	-1.333189476146421
1.030999999999997	0.3209305911432198	-1.357086651105663
1.031999999999997	0.319590461338803	-1.323169911985747
1.032999999999997	0.3182759482595727	-1.305853257639854
1.033999999999997	0.3169794773502011	-1.287085612023032
1.034999999999997	0.3157003893583306	-1.271087460949111
1.035999999999997	0.314436560460184	-1.256567458105165
1.036999999999997	0.3131635575704414	-1.289435422059667
1.037999999999996	0.3118636344856787	-1.31040778559979
1.038999999999996	0.3105413152581614	-1.334227655265874
1.039999999999996	0.3091955856405643	-1.357228511082786
1.040999999999996	0.3078553031574292	-1.323333397452071
1.041999999999996	0.3065418096941424	-1.303650531238513
1.042999999999996	0.3052484721115878	-1.283021680772733
1.043999999999996	0.3039743162222601	-1.265287187405713
1.044999999999996	0.3026923010033599	-1.298740320790653
1.045999999999996	0.3013832526766521	-1.319353340035607
1.046999999999995	0.3000520498961302	-1.343049176522974
1.047999999999995	0.2986975898077867	-1.365867901201531
1.048999999999995	0.2973487515499561	-1.33180552707521
1.049999999999995	0.2960268712093662	-1.311952127186255
1.050999999999995	0.2947262644846108	-1.289258342928607
1.051999999999995	0.2934465628961215	-1.270141901394533
1.052999999999995	0.292159621060307	-1.303738819842766
1.053999999999995	0.2908456918231324	-1.324116641066264
1.054999999999995	0.2895097959805853	-1.347671978992826
1.055999999999994	0.2881507948788238	-1.370327105231586
1.056999999999994	0.2867690817204991	-1.393096038700131
1.057999999999994	0.2853931632068889	-1.358737827823372
1.058999999999994	0.2840444676586414	-1.338650169271455
1.059999999999994	0.2827176023361873	-1.315077425212992
1.060999999999994	0.2814133308696799	-1.293462508174244
1.061999999999994	0.2801029064001792	-1.32738341590963
1.062999999999994	0.2787655212892914	-1.347383727747405
1.063999999999994	0.2774064596455911	-1.370736430436761
1.064999999999994	0.2760245169124537	-1.393145852696547
1.065999999999993	0.2746485966479949	-1.35869150571323
1.066999999999993	0.2733000279889553	-1.338442703691169
1.067999999999993	0.2719734423692516	-1.314725476568928
1.068999999999993	0.2706691745325187	-1.293807188111509
1.069999999999993	0.2693585850702269	-1.327368712006498
1.070999999999993	0.268021262793574	-1.347272754013936
1.071999999999993	0.2666623927231172	-1.370464248708403
1.072999999999993	0.2652807944488074	-1.392729108036587
1.073999999999993	0.2639053650279046	-1.35812655495595
1.074999999999992	0.2625574347165593	-1.337730951329337
1.075999999999992	0.2612316341705438	-1.313867074358736
1.076999999999992	0.2599280701824599	-1.293257885835432
1.077999999999992	0.2586181602225047	-1.326559002365688
1.078999999999992	0.2572817067885291	-1.346344771360112
1.079999999999992	0.2559238412553529	-1.369383150077999
1.080999999999992	0.2545433960496213	-1.391504063029155
1.081999999999992	0.2531692645314976	-1.35675578834936
1.082999999999992	0.2518227773704322	-1.336215411886064
1.083999999999991	0.2504985646108907	-1.312207035891024
1.084999999999991	0.2491965888723857	-1.291741420373282
1.085999999999991	0.2478883034048611	-1.32482647828267
1.086999999999991	0.2465536455471465	-1.344486138509671
1.087999999999991	0.2451977126270894	-1.367376552507882
1.088999999999991	0.243819345024736	-1.389355449903317
1.089999999999991	0.2424189392211042	-1.41145290273988
1.090999999999991	0.2410249991638354	-1.376423971084595
1.091999999999991	0.239658951912987	-1.355667353668203
1.09299999999999	0.2383154030857598	-1.331427175131147
1.09399999999999	0.2369950690696088	-1.30923778452892
1.09499999999999	0.2356692129143576	-1.342471439494548
1.09599999999999	0.2343170683540056	-1.36181453252102
1.09699999999999	0.2329439072202167	-1.384504536387682
1.09799999999999	0.2315485260193128	-1.406254613923446
1.09899999999999	0.2301598260522948	-1.371142083122163
1.09999999999999	0.2287991350176478	-1.350236813446933
1.10099999999999	0.2274610826964664	-1.325864707997324
1.101999999999989	0.226145791633323	-1.304714349517784
1.102999999999989	0.2248246738015326	-1.337518230761378
1.103999999999989	0.2234775144275032	-1.356797372259214
1.104999999999989	0.2221094476464957	-1.379332994922351
1.105999999999989	0.2207193036620251	-1.400951726617536
1.106999999999989	0.2193359748483077	-1.365702668330518
1.107999999999989	0.2179807905759896	-1.34466270861864
1.108999999999989	0.2166483796604182	-1.320156007141862
1.109999999999989	0.2153385657057112	-1.299468838834429
1.110999999999988	0.2140485333576808	-1.280592839196431
1.111999999999988	0.2127518790446536	-1.312712752482973
1.112999999999988	0.2114294989412863	-1.332044358798681
1.113999999999988	0.2100862501734798	-1.35445003161194
1.114999999999988	0.2087495254932142	-1.318996198098794
1.115999999999988	0.2074405794302092	-1.29889286129319
1.116999999999988	0.2061521558727529	-1.277951234256556
1.117999999999988	0.2048832295085415	-1.259898519699097
1.118999999999988	0.2036315093268172	-1.243538908846418
1.119999999999987	0.2023952745313509	-1.228927782746931
1.120999999999987	0.2011508181564508	-1.259982047689064
1.121999999999987	0.1998810383776974	-1.279574530283634
1.122999999999987	0.1985902935646493	-1.301912066298687
1.123999999999987	0.1973054944920032	-1.26768306265327
1.124999999999987	0.1960464096938214	-1.25048357698803
1.125999999999987	0.1948053094292952	-1.231714036851639
